# Made in Blockbench 3.9.3
mtllib cog_steer.mtl
o steer
v -2.625 -0.125 0.0625
v -2.625 -0.125 -0.0625
v -2.625 -1 0.0625
v -2.625 -1 -0.0625
v -2.875 -0.125 -0.0625
v -2.875 -0.125 0.0625
v -2.875 -1 -0.0625
v -2.875 -1 0.0625
vt 0.0313720703125 0.952880859375
vt 0.0313720703125 0.734619140625
vt 0.0467529296875 0.952880859375
vt 0.0313720703125 0.734619140625
vt 0.0467529296875 0.734619140625
vt 0.0467529296875 0.952880859375
vt 0.0782470703125 0.952880859375
vt 0.0782470703125 0.734619140625
vt 0.0936279296875 0.952880859375
vt 0.0782470703125 0.734619140625
vt 0.0936279296875 0.734619140625
vt 0.0936279296875 0.952880859375
vt 0.0780029296875 0.953369140625
vt 0.0780029296875 0.984130859375
vt 0.0469970703125 0.953369140625
vt 0.0780029296875 0.984130859375
vt 0.0469970703125 0.984130859375
vt 0.0469970703125 0.953369140625
vt 0.1092529296875 0.984130859375
vt 0.1092529296875 0.953369140625
vt 0.0782470703125 0.984130859375
vt 0.1092529296875 0.953369140625
vt 0.0782470703125 0.953369140625
vt 0.0782470703125 0.984130859375
vt 0.0938720703125 0.952880859375
vt 0.0938720703125 0.734619140625
vt 0.1248779296875 0.952880859375
vt 0.0938720703125 0.734619140625
vt 0.1248779296875 0.734619140625
vt 0.1248779296875 0.952880859375
vt 0.0469970703125 0.952880859375
vt 0.0469970703125 0.734619140625
vt 0.0780029296875 0.952880859375
vt 0.0469970703125 0.734619140625
vt 0.0780029296875 0.734619140625
vt 0.0780029296875 0.952880859375
vn 1 0 0
vn 1 0 0
vn 1 0 0
vn 1 0 0
vn 1 0 0
vn 1 0 0
vn -1 0 0
vn -1 0 0
vn -1 0 0
vn -1 0 0
vn -1 0 0
vn -1 0 0
vn 0 1 0
vn 0 1 0
vn 0 1 0
vn 0 1 0
vn 0 1 0
vn 0 1 0
vn 0 -1 0
vn 0 -1 0
vn 0 -1 0
vn 0 -1 0
vn 0 -1 0
vn 0 -1 0
vn 0 0 1
vn 0 0 1
vn 0 0 1
vn 0 0 1
vn 0 0 1
vn 0 0 1
vn 0 0 -1
vn 0 0 -1
vn 0 0 -1
vn 0 0 -1
vn 0 0 -1
vn 0 0 -1
usemtl m_1
f 1/1/1 3/2/2 2/3/3
f 3/4/4 4/5/5 2/6/6
usemtl m_1
f 5/7/7 7/8/8 6/9/9
f 7/10/10 8/11/11 6/12/12
usemtl m_1
f 5/13/13 6/14/14 2/15/15
f 6/16/16 1/17/17 2/18/18
usemtl m_1
f 8/19/19 7/20/20 3/21/21
f 7/22/22 4/23/23 3/24/24
usemtl m_1
f 6/25/25 8/26/26 1/27/27
f 8/28/28 3/29/29 1/30/30
usemtl m_1
f 2/31/31 4/32/32 5/33/33
f 4/34/34 7/35/35 5/36/36
